<?xml version="1.0" encoding="UTF-8"?>
<svg version="1.1" xmlns="http://www.w3.org/2000/svg" width="19" height="19">
<path d="M0 0 C1.39456452 0.00667256 2.78911118 0.01863093 4.18359375 0.03515625 C4.89451172 0.03966797 5.60542969 0.04417969 6.33789062 0.04882812 C8.09899388 0.06064761 9.86005411 0.07858362 11.62109375 0.09765625 C14.14648021 8.57933269 14.14648021 8.57933269 13.62109375 13.09765625 C12.63109375 13.75765625 11.64109375 14.41765625 10.62109375 15.09765625 C10.62109375 14.43765625 10.62109375 13.77765625 10.62109375 13.09765625 C6.33109375 13.09765625 2.04109375 13.09765625 -2.37890625 13.09765625 C-2.70890625 13.75765625 -3.03890625 14.41765625 -3.37890625 15.09765625 C-5.37890625 13.09765625 -5.37890625 13.09765625 -5.390625 10.3125 C-5.28363281 9.23097656 -5.17664063 8.14945313 -5.06640625 7.03515625 C-4.96714844 5.95105469 -4.86789063 4.86695313 -4.765625 3.75 C-4.19223424 -0.18264979 -4.11628804 0.11896786 0 0 Z M-2.37890625 2.09765625 C-2.04890625 3.41765625 -1.71890625 4.73765625 -1.37890625 6.09765625 C-1.04890625 5.43765625 -0.71890625 4.77765625 -0.37890625 4.09765625 C1.07902259 4.04365889 2.53752087 4.00486448 3.99609375 3.97265625 C4.80820313 3.94945312 5.6203125 3.92625 6.45703125 3.90234375 C8.62109375 4.09765625 8.62109375 4.09765625 10.62109375 6.09765625 C10.62109375 4.77765625 10.62109375 3.45765625 10.62109375 2.09765625 C6.33109375 2.09765625 2.04109375 2.09765625 -2.37890625 2.09765625 Z M-3.37890625 8.09765625 C-3.37890625 9.08765625 -3.37890625 10.07765625 -3.37890625 11.09765625 C1.57109375 11.09765625 6.52109375 11.09765625 11.62109375 11.09765625 C11.62109375 10.10765625 11.62109375 9.11765625 11.62109375 8.09765625 C6.67109375 8.09765625 1.72109375 8.09765625 -3.37890625 8.09765625 Z " fill="#686868" transform="translate(5.37890625,1.90234375)"/>
</svg>
