<?xml version="1.0" encoding="UTF-8"?>
<svg version="1.1" xmlns="http://www.w3.org/2000/svg" width="19" height="19">
<path d="M0 0 C1.26457031 0.05800781 2.52914063 0.11601562 3.83203125 0.17578125 C5.10433594 0.22089844 6.37664063 0.26601563 7.6875 0.3125 C8.66332031 0.37050781 9.63914062 0.42851562 10.64453125 0.48828125 C12.29542143 4.09554128 12.87509174 6.84226277 12.76953125 10.80078125 C12.75148438 11.68378906 12.7334375 12.56679687 12.71484375 13.4765625 C12.69164063 14.14042969 12.6684375 14.80429687 12.64453125 15.48828125 C10.99453125 15.48828125 9.34453125 15.48828125 7.64453125 15.48828125 C7.64453125 14.82828125 7.64453125 14.16828125 7.64453125 13.48828125 C4.67453125 13.48828125 1.70453125 13.48828125 -1.35546875 13.48828125 C-1.35546875 14.14828125 -1.35546875 14.80828125 -1.35546875 15.48828125 C-3.00546875 15.48828125 -4.65546875 15.48828125 -6.35546875 15.48828125 C-6.4373393 13.9266764 -6.4950515 12.36379642 -6.54296875 10.80078125 C-6.57777344 9.93066406 -6.61257812 9.06054688 -6.6484375 8.1640625 C-6.11154606 3.26045403 -5.09228139 0.74101883 0 0 Z M-2.35546875 1.48828125 C-2.68546875 2.80828125 -3.01546875 4.12828125 -3.35546875 5.48828125 C0.88933589 5.8212071 2.9999575 5.92713997 6.58203125 3.48828125 C7.26265625 2.82828125 7.94328125 2.16828125 8.64453125 1.48828125 C5.01453125 1.48828125 1.38453125 1.48828125 -2.35546875 1.48828125 Z M-4.35546875 6.48828125 C-3.03546875 6.81828125 -1.71546875 7.14828125 -0.35546875 7.48828125 C-0.35546875 8.80828125 -0.35546875 10.12828125 -0.35546875 11.48828125 C1.95453125 11.48828125 4.26453125 11.48828125 6.64453125 11.48828125 C6.64453125 10.16828125 6.64453125 8.84828125 6.64453125 7.48828125 C7.96453125 7.15828125 9.28453125 6.82828125 10.64453125 6.48828125 C5.69453125 6.48828125 0.74453125 6.48828125 -4.35546875 6.48828125 Z " fill="#686868" transform="translate(6.35546875,1.51171875)"/>
<path d="M0 0 C1.65 0 3.3 0 5 0 C5 0.99 5 1.98 5 3 C3.35 3 1.7 3 0 3 C0 2.01 0 1.02 0 0 Z " fill="#686868" transform="translate(7,9)"/>
</svg>
