<?xml version="1.0" standalone="no"?>
<!DOCTYPE svg PUBLIC "-//W3C//DTD SVG 20010904//EN"
 "http://www.w3.org/TR/2001/REC-SVG-20010904/DTD/svg10.dtd">
<svg version="1.0" xmlns="http://www.w3.org/2000/svg"
 width="50.000000pt" height="50.000000pt" viewBox="0 0 50.000000 50.000000"
 preserveAspectRatio="xMidYMid meet">

<g transform="translate(0.000000,50.000000) scale(0.100000,-0.100000)"
fill="#000000" stroke="none">
<path d="M94 486 c-58 -25 -64 -45 -64 -203 0 -78 4 -153 10 -167 5 -14 24
-35 42 -46 28 -17 47 -20 128 -18 77 2 95 6 95 18 0 12 -19 16 -102 18 -96 3
-103 4 -123 29 -18 23 -20 40 -20 160 0 129 1 135 25 158 23 24 29 25 165 25
136 0 142 -1 165 -25 25 -24 25 -26 25 -210 0 -102 -4 -185 -8 -185 -5 0 -17
9 -27 20 -18 20 -55 28 -55 11 0 -13 68 -71 83 -71 33 0 37 23 37 217 0 218
-6 244 -65 269 -46 19 -267 19 -311 0z"/>
<path d="M160 340 c0 -29 4 -40 15 -40 11 0 15 11 15 40 0 29 -4 40 -15 40
-11 0 -15 -11 -15 -40z"/>
<path d="M310 340 c0 -29 4 -40 15 -40 11 0 15 11 15 40 0 29 -4 40 -15 40
-11 0 -15 -11 -15 -40z"/>
<path d="M152 223 c4 -24 65 -63 98 -63 33 0 94 39 98 63 5 23 -14 22 -45 -3
-33 -25 -73 -25 -106 0 -31 25 -50 26 -45 3z"/>
</g>
</svg>
