<?xml version="1.0" encoding="UTF-8"?>
<svg version="1.1" xmlns="http://www.w3.org/2000/svg" width="20" height="20">
<path d="M0 0 C0.74507812 0.10441406 1.49015625 0.20882813 2.2578125 0.31640625 C4.09014511 0.57481213 5.92032234 0.84842082 7.75 1.125 C7.75 1.785 7.75 2.445 7.75 3.125 C7.01394531 3.18558594 6.27789063 3.24617188 5.51953125 3.30859375 C4.05580078 3.43427734 4.05580078 3.43427734 2.5625 3.5625 C1.59957031 3.64371094 0.63664063 3.72492187 -0.35546875 3.80859375 C-3.23693774 4.07185549 -3.23693774 4.07185549 -5.96875 4.71875 C-8.75506368 5.21494285 -9.89836078 4.60566173 -12.25 3.125 C-12.25 2.465 -12.25 1.805 -12.25 1.125 C-8.33049902 -1.65990859 -4.46387984 -0.68614407 0 0 Z M-7.25 1.125 C-7.25 1.785 -7.25 2.445 -7.25 3.125 C-6.59 2.795 -5.93 2.465 -5.25 2.125 C-5.91 1.795 -6.57 1.465 -7.25 1.125 Z " fill="#0060DE" transform="translate(12.25,14.875)"/>
<path d="M0 0 C2.79297711 0.44099639 5.31340243 1.10446748 8 2 C8 2.66 8 3.32 8 4 C4.08049902 6.78490859 0.21387984 5.81114407 -4.25 5.125 C-4.99507813 5.02058594 -5.74015625 4.91617187 -6.5078125 4.80859375 C-8.34014511 4.55018787 -10.17032234 4.27657918 -12 4 C-12 3.34 -12 2.68 -12 2 C-11.21753906 1.93941406 -10.43507813 1.87882813 -9.62890625 1.81640625 C-8.61699219 1.73261719 -7.60507813 1.64882812 -6.5625 1.5625 C-5.55316406 1.48128906 -4.54382813 1.40007813 -3.50390625 1.31640625 C-1.06359221 1.26788532 -1.06359221 1.26788532 0 0 Z M1 2 C1 2.66 1 3.32 1 4 C1.66 4 2.32 4 3 4 C3 3.34 3 2.68 3 2 C2.34 2 1.68 2 1 2 Z " fill="#0060DE" transform="translate(12,7)"/>
<path d="M0 0 C1.65 0 3.3 0 5 0 C5 0.66 5 1.32 5 2 C8.63 2 12.26 2 16 2 C16 2.66 16 3.32 16 4 C15.30132813 3.97679687 14.60265625 3.95359375 13.8828125 3.9296875 C12.97273438 3.91164062 12.06265625 3.89359375 11.125 3.875 C10.22007813 3.85179687 9.31515625 3.82859375 8.3828125 3.8046875 C5.81193006 3.75675164 5.81193006 3.75675164 4 6 C2.125 5.6875 2.125 5.6875 0 5 C-0.7425 4.814375 -1.485 4.62875 -2.25 4.4375 C-2.8275 4.293125 -3.405 4.14875 -4 4 C-4 3.34 -4 2.68 -4 2 C-2.68 2 -1.36 2 0 2 C0 1.34 0 0.68 0 0 Z M1 2 C1.66 2.66 2.32 3.32 3 4 C3 3.34 3 2.68 3 2 C2.34 2 1.68 2 1 2 Z " fill="#0060DE" transform="translate(4,0)"/>
</svg>
