<?xml version="1.0" encoding="UTF-8"?>
<svg version="1.1" xmlns="http://www.w3.org/2000/svg" width="20" height="15">
<path d="M0 0 C2.90083241 3.19835368 2.79630813 4.24380443 2.8125 8.4375 C2.68875 10.17 2.565 11.9025 2.4375 13.6875 C-4.1625 13.6875 -10.7625 13.6875 -17.5625 13.6875 C-18.16732441 3.52644998 -18.16732441 3.52644998 -15.625 0 C-10.08307759 -2.37510961 -5.60877321 -2.06639013 0 0 Z M-14.1875 2.25 C-16.95307337 4.571448 -16.95307337 4.571448 -16.875 8.4375 C-16.771875 9.51 -16.66875 10.5825 -16.5625 11.6875 C-15.2425 11.6875 -13.9225 11.6875 -12.5625 11.6875 C-12.5625 10.3675 -12.5625 9.0475 -12.5625 7.6875 C-11.2425 7.6875 -9.9225 7.6875 -8.5625 7.6875 C-8.5625 9.0075 -8.5625 10.3275 -8.5625 11.6875 C-7.2425 11.6875 -5.9225 11.6875 -4.5625 11.6875 C-4.14478196 8.35549815 -4.14478196 8.35549815 -4.5625 4.6875 C-6.80541412 2.1754561 -6.80541412 2.1754561 -9.5625 0.6875 C-11.7852086 0.51700538 -11.7852086 0.51700538 -14.1875 2.25 Z M-2.5625 4.6875 C-2.5625 6.9975 -2.5625 9.3075 -2.5625 11.6875 C-2.2325 11.6875 -1.9025 11.6875 -1.5625 11.6875 C-1.5625 9.3775 -1.5625 7.0675 -1.5625 4.6875 C-1.8925 4.6875 -2.2225 4.6875 -2.5625 4.6875 Z M0.4375 4.6875 C0.4375 6.9975 0.4375 9.3075 0.4375 11.6875 C0.7675 11.6875 1.0975 11.6875 1.4375 11.6875 C1.4375 9.3775 1.4375 7.0675 1.4375 4.6875 C1.1075 4.6875 0.7775 4.6875 0.4375 4.6875 Z M-10.5625 8.6875 C-9.5625 11.6875 -9.5625 11.6875 -9.5625 11.6875 Z " fill="#0060DE" transform="translate(17.5625,1.3125)"/>
</svg>
