<?xml version="1.0" standalone="no"?>
<!DOCTYPE svg PUBLIC "-//W3C//DTD SVG 20010904//EN"
 "http://www.w3.org/TR/2001/REC-SVG-20010904/DTD/svg10.dtd">
<svg version="1.0" xmlns="http://www.w3.org/2000/svg"
 width="50.000000pt" height="50.000000pt" viewBox="0 0 50.000000 50.000000"
 preserveAspectRatio="xMidYMid meet">

<g transform="translate(0.000000,50.000000) scale(0.100000,-0.100000)"
fill="#000000" stroke="none">
<path d="M190 479 c-65 -40 -161 -121 -175 -150 -10 -19 -15 -60 -15 -132 0
-92 3 -108 23 -138 38 -56 54 -60 239 -57 l168 3 32 33 33 32 0 124 c0 110 -2
128 -21 152 -11 15 -26 30 -32 32 -17 5 -15 -33 3 -48 12 -10 15 -38 15 -129
0 -165 5 -161 -211 -161 -214 0 -209 -4 -209 162 l0 116 48 40 c86 71 135 102
162 102 14 0 49 -16 76 -35 65 -46 74 -45 74 9 0 48 -18 72 -27 37 -7 -26 -9
-26 -58 4 -49 30 -79 31 -125 4z"/>
<path d="M190 250 c0 -13 7 -20 20 -20 13 0 20 7 20 20 0 13 -7 20 -20 20 -13
0 -20 -7 -20 -20z"/>
<path d="M270 250 c0 -13 7 -20 20 -20 13 0 20 7 20 20 0 13 -7 20 -20 20 -13
0 -20 -7 -20 -20z"/>
<path d="M192 173 c5 -26 38 -29 38 -4 0 15 -6 21 -21 21 -14 0 -19 -5 -17
-17z"/>
<path d="M270 169 c0 -14 5 -19 17 -17 26 5 29 38 4 38 -15 0 -21 -6 -21 -21z"/>
</g>
</svg>
