<?xml version="1.0" encoding="UTF-8"?>
<svg version="1.1" xmlns="http://www.w3.org/2000/svg" width="15" height="15">
<path d="M0 0 C0.66 0 1.32 0 2 0 C1.649375 0.78375 1.29875 1.5675 0.9375 2.375 C0.628125 3.24125 0.31875 4.1075 0 5 C0.33 5.66 0.66 6.32 1 7 C-0.98 7 -2.96 7 -5 7 C-5 5.02 -5 3.04 -5 1 C-3.68 1 -2.36 1 -1 1 C-0.67 0.67 -0.34 0.34 0 0 Z " fill="#686868" transform="translate(5,8)"/>
<path d="M0 0 C1.98 0 3.96 0 6 0 C6 1.98 6 3.96 6 6 C4.68 6 3.36 6 2 6 C1.01 6.33 0.02 6.66 -1 7 C-0.649375 6.21625 -0.29875 5.4325 0.0625 4.625 C0.371875 3.75875 0.68125 2.8925 1 2 C0.67 1.34 0.34 0.68 0 0 Z " fill="#686868" transform="translate(9,0)"/>
</svg>
