<?xml version="1.0" encoding="UTF-8"?>
<svg version="1.1" xmlns="http://www.w3.org/2000/svg" width="17" height="17">
<path d="M0 0 C0 5.61 0 11.22 0 17 C-5.61 17 -11.22 17 -17 17 C-15.37782461 13.75564922 -14.45544522 12.20030809 -12.03125 9.765625 C-11.17466797 8.90517578 -11.17466797 8.90517578 -10.30078125 8.02734375 C-9.70652344 7.44082031 -9.11226562 6.85429688 -8.5 6.25 C-7.90574219 5.64800781 -7.31148437 5.04601562 -6.69921875 4.42578125 C-6.12816406 3.85730469 -5.55710937 3.28882813 -4.96875 2.703125 C-4.44732422 2.18395508 -3.92589844 1.66478516 -3.38867188 1.12988281 C-2 0 -2 0 0 0 Z M-3.6875 4.5625 C-5.40089088 7.11212534 -5.40089088 7.11212534 -4.1875 10.75 C-3.795625 11.8225 -3.40375 12.895 -3 14 C-5.64 13.34 -8.28 12.68 -11 12 C-11.99 13.32 -12.98 14.64 -14 16 C-9.71 16 -5.42 16 -1 16 C-1 11.71 -1 7.42 -1 3 C-2.26100592 2.88676533 -2.26100592 2.88676533 -3.6875 4.5625 Z M-7 8 C-6.67 8.66 -6.34 9.32 -6 10 C-5.67 9.34 -5.34 8.68 -5 8 C-5.66 8 -6.32 8 -7 8 Z M-9 10 C-8.67 10.66 -8.34 11.32 -8 12 C-7.67 11.34 -7.34 10.68 -7 10 C-7.66 10 -8.32 10 -9 10 Z " fill="#676767" transform="translate(17,0)"/>
</svg>
