<?xml version="1.0" encoding="UTF-8"?>
<svg version="1.1" xmlns="http://www.w3.org/2000/svg" width="15" height="15">
<path d="M0 0 C1.08410156 0.00257812 2.16820312 0.00515625 3.28515625 0.0078125 C4.90744141 0.00394531 4.90744141 0.00394531 6.5625 0 C9.34765625 0.1328125 9.34765625 0.1328125 11.34765625 1.1328125 C11.78234028 4.17560068 11.91380625 6.29468849 10.15234375 8.90234375 C7.25969759 12.00576061 7.25969759 12.00576061 5.34765625 13.1328125 C2.20187652 12.81823453 1.15304271 11.97800628 -1.40234375 9.9453125 C-3.65234375 7.1328125 -3.65234375 7.1328125 -4.02734375 3.8828125 C-3.52191776 0.17635523 -3.52191776 0.17635523 0 0 Z M-1.65234375 2.1328125 C-0.5604456 7.59230324 0.03557187 8.14752331 4.34765625 11.1328125 C6.93098854 8.88322916 6.93098854 8.88322916 9.34765625 6.1328125 C9.34765625 4.8128125 9.34765625 3.4928125 9.34765625 2.1328125 C5.71765625 2.1328125 2.08765625 2.1328125 -1.65234375 2.1328125 Z " fill="#686868" transform="translate(3.65234375,0.8671875)"/>
</svg>
