<?xml version="1.0" standalone="no"?>
<!DOCTYPE svg PUBLIC "-//W3C//DTD SVG 20010904//EN"
 "http://www.w3.org/TR/2001/REC-SVG-20010904/DTD/svg10.dtd">
<svg version="1.0" xmlns="http://www.w3.org/2000/svg"
 width="50.000000pt" height="50.000000pt" viewBox="0 0 50.000000 50.000000"
 preserveAspectRatio="xMidYMid meet">

<g transform="translate(0.000000,50.000000) scale(0.100000,-0.100000)"
fill="#000000" stroke="none">
<path d="M75 490 c-11 -4 -31 -20 -45 -35 -24 -26 -25 -31 -28 -193 -3 -161
-2 -168 20 -202 13 -19 35 -40 48 -47 25 -13 221 -19 233 -7 3 3 3 12 0 20 -4
11 -30 14 -112 14 -154 0 -151 -4 -151 211 0 221 -12 209 211 209 159 0 166
-1 187 -23 16 -17 22 -37 24 -92 2 -54 6 -70 18 -70 21 0 26 102 6 149 -27 66
-59 76 -236 75 -85 0 -164 -4 -175 -9z"/>
<path d="M120 406 c0 -18 85 -96 105 -96 9 0 37 20 63 44 38 36 45 47 34 57
-10 11 -19 6 -50 -24 -21 -20 -42 -37 -48 -37 -6 0 -25 16 -44 35 -35 36 -60
45 -60 21z"/>
<path d="M245 250 c-119 -119 -147 -152 -137 -162 10 -10 43 18 162 137 140
140 159 164 134 172 -5 2 -77 -64 -159 -147z"/>
<path d="M84 339 c-3 -6 6 -23 20 -38 33 -34 33 -48 -1 -83 -22 -23 -24 -31
-14 -41 10 -10 19 -5 47 25 42 46 43 67 3 113 -33 37 -44 42 -55 24z"/>
<path d="M331 219 c-28 -27 -43 -66 -35 -93 11 -38 65 -115 85 -121 29 -10 61
16 93 75 26 47 27 56 17 90 -6 21 -22 45 -36 54 -35 23 -96 21 -124 -5z m107
-25 c13 -9 22 -26 22 -41 0 -33 -46 -113 -65 -113 -17 0 -65 79 -65 108 0 27
37 62 65 62 11 0 31 -7 43 -16z"/>
<path d="M382 157 c-14 -17 2 -42 22 -34 20 8 20 21 2 36 -10 8 -16 8 -24 -2z"/>
</g>
</svg>
