<?xml version="1.0" encoding="UTF-8"?>
<svg version="1.1" xmlns="http://www.w3.org/2000/svg" width="19" height="19">
<path d="M0 0 C1.65 0 3.3 0 5 0 C5 3.3 5 6.6 5 10 C5.66 10 6.32 10 7 10 C6.67 11.98 6.34 13.96 6 16 C5.34 16 4.68 16 4 16 C4 16.99 4 17.98 4 19 C3.01 18.67 2.02 18.34 1 18 C-2.68382769 17.86843473 -5.49053585 17.83017862 -9 19 C-9 18.01 -9 17.02 -9 16 C-9.66 16 -10.32 16 -11 16 C-11.33 14.02 -11.66 12.04 -12 10 C-7.05 10 -2.1 10 3 10 C3 7.36 3 4.72 3 2 C2.34 2 1.68 2 1 2 C1 2.99 1 3.98 1 5 C0.34 5 -0.32 5 -1 5 C-0.67 3.35 -0.34 1.7 0 0 Z M-10 12 C-9.01 13.485 -9.01 13.485 -8 15 C-5.40701738 15.47874797 -5.40701738 15.47874797 -2.5 15.375 C-1.5203125 15.38273438 -0.540625 15.39046875 0.46875 15.3984375 C1.3040625 15.26695313 2.139375 15.13546875 3 15 C3.66 14.01 4.32 13.02 5 12 C0.05 12 -4.9 12 -10 12 Z " fill="#686868" transform="translate(12,0)"/>
</svg>
